<svg width="48" height="48" viewBox="0 0 48 48" fill="none" xmlns="http://www.w3.org/2000/svg">
<path d="M15.36 35.97C14.9023 35.9705 14.4601 35.8041 14.1162 35.502L2.59618 25.422C2.39356 25.2446 2.2312 25.026 2.11996 24.7808C2.00872 24.5355 1.95117 24.2693 1.95117 24C1.95117 23.7307 2.00872 23.4646 2.11996 23.2193C2.2312 22.9741 2.39356 22.7554 2.59618 22.578L14.1162 12.498C14.4934 12.1679 14.9864 12.0012 15.4866 12.0345C15.9868 12.0679 16.4532 12.2985 16.7833 12.6758C17.1134 13.053 17.2802 13.546 17.2468 14.0462C17.2135 14.5464 16.9828 15.0128 16.6056 15.3429L6.71008 24L16.6047 32.6571C16.8943 32.9103 17.0997 33.2458 17.1936 33.6188C17.2874 33.9919 17.2652 34.3847 17.13 34.7448C16.9947 35.1048 16.7527 35.4151 16.4365 35.634C16.1202 35.853 15.7446 35.9702 15.36 35.97Z" fill="white"/>
<path d="M32.64 35.97C32.2552 35.9704 31.8796 35.8533 31.5632 35.6344C31.2467 35.4155 31.0047 35.1053 30.8693 34.7452C30.7339 34.3851 30.7116 33.9922 30.8054 33.6191C30.8993 33.2459 31.1047 32.9104 31.3944 32.6571L41.2899 24L31.3953 15.3429C31.018 15.0128 30.7874 14.5464 30.754 14.0462C30.7207 13.546 30.8874 13.053 31.2175 12.6758C31.5477 12.2985 32.0141 12.0679 32.5143 12.0345C33.0145 12.0012 33.5074 12.1679 33.8847 12.498L45.4047 22.578C45.6073 22.7554 45.7697 22.9741 45.8809 23.2193C45.9922 23.4646 46.0497 23.7307 46.0497 24C46.0497 24.2693 45.9922 24.5355 45.8809 24.7808C45.7697 25.026 45.6073 25.2446 45.4047 25.422L33.8847 35.502C33.5406 35.8044 33.098 35.9709 32.64 35.97Z" fill="white"/>
<path d="M19.68 40.29C19.3856 40.2899 19.0954 40.2211 18.8323 40.0891C18.5693 39.957 18.3407 39.7653 18.1649 39.5293C17.989 39.2933 17.8707 39.0195 17.8194 38.7297C17.768 38.4399 17.7851 38.1421 17.8692 37.86L26.5092 9.06001C26.5742 8.81562 26.6877 8.58677 26.8428 8.38703C26.998 8.18729 27.1916 8.02072 27.4123 7.89718C27.633 7.77365 27.8762 7.69566 28.1276 7.66784C28.379 7.64002 28.6334 7.66294 28.8757 7.73523C29.1181 7.80752 29.3435 7.92772 29.5385 8.0887C29.7336 8.24968 29.8944 8.44818 30.0113 8.67243C30.1283 8.89667 30.199 9.14211 30.2194 9.3942C30.2397 9.64629 30.2093 9.8999 30.1299 10.14L21.4899 38.94C21.3736 39.3298 21.1347 39.6718 20.8087 39.915C20.4826 40.1582 20.0867 40.2897 19.68 40.29Z" fill="white"/>
</svg>