<svg width="46" height="46" viewBox="0 0 46 46" fill="none" xmlns="http://www.w3.org/2000/svg">
<path d="M11 21.24C11.96 21.16 12.68 20.9 13.16 20.46C13.66 20.02 13.91 19.43 13.91 18.69C13.91 17.85 13.82 16.64 13.64 15.06C13.44 13.18 13.34 11.81 13.34 10.95C13.34 9.39 13.8 8.18 14.72 7.32C15.66 6.44 16.9 6 18.44 6H20.51V9.54H19.25C18.01 9.54 17.39 10.13 17.39 11.31C17.39 11.87 17.47 12.99 17.63 14.67C17.65 14.87 17.7 15.44 17.78 16.38C17.86 17.3 17.9 18.12 17.9 18.84C17.9 19.9 17.64 20.78 17.12 21.48C16.6 22.18 15.81 22.63 14.75 22.83V22.89C15.81 23.11 16.6 23.57 17.12 24.27C17.64 24.95 17.9 25.83 17.9 26.91C17.9 27.59 17.86 28.4 17.78 29.34C17.7 30.26 17.65 30.84 17.63 31.08C17.47 32.76 17.39 33.87 17.39 34.41C17.39 35.03 17.54 35.48 17.84 35.76C18.14 36.04 18.61 36.18 19.25 36.18H20.51V39.75H18.44C16.9 39.75 15.66 39.31 14.72 38.43C13.8 37.57 13.34 36.36 13.34 34.8C13.34 33.92 13.44 32.54 13.64 30.66C13.82 29.08 13.91 27.88 13.91 27.06C13.91 26.32 13.66 25.73 13.16 25.29C12.68 24.85 11.96 24.59 11 24.51V21.24Z" fill="white"/>
<path d="M34.8744 24.51C33.9144 24.59 33.1844 24.85 32.6844 25.29C32.2044 25.73 31.9644 26.32 31.9644 27.06C31.9644 27.88 32.0544 29.08 32.2344 30.66C32.4344 32.54 32.5344 33.92 32.5344 34.8C32.5344 36.36 32.0644 37.57 31.1244 38.43C30.2044 39.31 28.9744 39.75 27.4344 39.75H25.3644V36.18H26.6244C27.2644 36.18 27.7344 36.04 28.0344 35.76C28.3344 35.48 28.4844 35.03 28.4844 34.41C28.4844 33.87 28.4044 32.76 28.2444 31.08C28.2244 30.84 28.1744 30.26 28.0944 29.34C28.0144 28.4 27.9744 27.59 27.9744 26.91C27.9744 25.83 28.2344 24.95 28.7544 24.27C29.2744 23.57 30.0644 23.11 31.1244 22.89V22.83C30.0644 22.63 29.2744 22.18 28.7544 21.48C28.2344 20.78 27.9744 19.9 27.9744 18.84C27.9744 18.12 28.0144 17.3 28.0944 16.38C28.1744 15.44 28.2244 14.87 28.2444 14.67C28.4044 12.99 28.4844 11.87 28.4844 11.31C28.4844 10.13 27.8644 9.54 26.6244 9.54H25.3644V6H27.4344C28.9744 6 30.2044 6.44 31.1244 7.32C32.0644 8.18 32.5344 9.39 32.5344 10.95C32.5344 11.81 32.4344 13.18 32.2344 15.06C32.0544 16.64 31.9644 17.85 31.9644 18.69C31.9644 19.43 32.2044 20.02 32.6844 20.46C33.1844 20.9 33.9144 21.16 34.8744 21.24V24.51Z" fill="white"/>
</svg>
