<svg width="46" height="46" viewBox="0 0 46 46" fill="none" xmlns="http://www.w3.org/2000/svg">
<circle cx="24" cy="5" r="3" fill="white"/>
<g clip-path="url(#clip0)">
<path d="M20.1029 37.8718L25.6499 38.0001C26.0146 38.0066 26.3671 37.8685 26.6303 37.6159C26.8935 37.3634 27.046 37.0168 27.0544 36.6521L27.4716 17.0509L24.6003 12.2296C24.4935 12.0552 24.349 11.9068 24.1775 11.7954C24.006 11.6839 23.8117 11.6122 23.6089 11.5854C23.4061 11.5586 23.1999 11.5775 23.0053 11.6407C22.8107 11.7038 22.6327 11.8096 22.4843 11.9504C22.4089 12.0094 22.3396 12.0759 22.2775 12.1488L19.1671 16.8895L18.755 36.4673C18.7484 36.832 18.8865 37.1845 19.1391 37.4477C19.3917 37.7109 19.7382 37.8634 20.1029 37.8718V37.8718ZM20.479 17.2937L23.4639 12.9229L26.13 17.4052L25.8005 32.0528L20.1448 31.9365L20.479 17.2937ZM20.1696 33.2525L25.8253 33.3688L25.7486 36.6394L20.141 36.477L20.1696 33.2525Z" fill="white"/>
</g>
<defs>
<clipPath id="clip0">
<rect width="24" height="24" fill="white" transform="translate(39.934 28.3159) rotate(136.178)"/>
</clipPath>
</defs>
</svg>
