<svg width="475" height="365" viewBox="0 0 475 365" fill="none" xmlns="http://www.w3.org/2000/svg">
<rect x="372.271" y="29.8109" width="99.6202" height="20.7182" rx="3" fill="#4C3FC5" stroke="white" stroke-width="2"/>
<line x1="394.441" y1="41.0099" x2="424.315" y2="44.7962" stroke="white" stroke-width="4" stroke-linecap="round"/>
<line x1="394.441" y1="41.0099" x2="424.315" y2="44.7962" stroke="white" stroke-width="4" stroke-linecap="round"/>
<ellipse cx="440.076" cy="41.1165" rx="4.23419" ry="3.78636" fill="white"/>
<rect x="372.271" y="50.6359" width="99.6202" height="20.7182" rx="3" fill="#4C3FC5" stroke="white" stroke-width="2"/>
<line x1="394.441" y1="61.8349" x2="424.315" y2="65.6212" stroke="white" stroke-width="4" stroke-linecap="round"/>
<line x1="394.441" y1="61.8349" x2="424.315" y2="65.6212" stroke="white" stroke-width="4" stroke-linecap="round"/>
<ellipse cx="440.076" cy="61.9417" rx="4.23419" ry="3.78635" fill="white"/>
<rect x="372.271" y="71.4609" width="99.6202" height="20.7182" rx="3" fill="#4C3FC5" stroke="white" stroke-width="2"/>
<line x1="394.441" y1="82.6597" x2="424.315" y2="86.4461" stroke="white" stroke-width="4" stroke-linecap="round"/>
<line x1="394.441" y1="82.6597" x2="424.315" y2="86.4461" stroke="white" stroke-width="4" stroke-linecap="round"/>
<ellipse cx="440.076" cy="82.7665" rx="4.23419" ry="3.78636" fill="white"/>
<rect x="372.271" y="92.2859" width="99.6202" height="20.7182" rx="3" fill="#4C3FC5" stroke="white" stroke-width="2"/>
<line x1="394.441" y1="103.485" x2="424.315" y2="107.271" stroke="white" stroke-width="4" stroke-linecap="round"/>
<line x1="394.441" y1="103.485" x2="424.315" y2="107.271" stroke="white" stroke-width="4" stroke-linecap="round"/>
<ellipse cx="440.076" cy="103.592" rx="4.23419" ry="3.78636" fill="white"/>
<rect x="372.271" y="113.111" width="99.6202" height="20.7182" rx="3" fill="#4C3FC5" stroke="white" stroke-width="2"/>
<line x1="394.441" y1="124.31" x2="424.315" y2="128.096" stroke="white" stroke-width="4" stroke-linecap="round"/>
<line x1="394.441" y1="124.31" x2="424.315" y2="128.096" stroke="white" stroke-width="4" stroke-linecap="round"/>
<ellipse cx="440.076" cy="124.416" rx="4.23419" ry="3.78636" fill="white"/>
<path d="M138.669 338.184H181.213C181.213 343.278 176.596 347.407 170.899 347.407H148.983C143.286 347.407 138.669 343.278 138.669 338.184Z" fill="#4C3FC5"/>
<path fill-rule="evenodd" clip-rule="evenodd" d="M67.7616 338.184V224.05C67.7616 220.23 71.2248 217.133 75.4969 217.133H245.674C249.946 217.133 253.41 220.23 253.41 224.05V338.184H266.302V342.796C266.302 350.436 259.375 356.63 250.831 356.63H71.6292C63.085 356.63 56.1586 350.436 56.1586 342.796V338.184H67.7616ZM75.4969 219.438H245.674C248.522 219.438 250.831 221.503 250.831 224.05V338.184H70.34V224.05C70.34 221.503 72.6488 219.438 75.4969 219.438ZM58.737 340.49V342.796C58.737 349.163 64.5091 354.324 71.6292 354.324H250.831C257.951 354.324 263.724 349.163 263.724 342.796V340.49H58.737Z" fill="#4C3FC5"/>
<path d="M161.375 227.508C161.375 229.091 159.921 230.467 158.007 230.467C156.093 230.467 154.64 229.091 154.64 227.508C154.64 225.926 156.093 224.55 158.007 224.55C159.921 224.55 161.375 225.926 161.375 227.508Z" fill="#4C3FC5" fill-opacity="0.2" stroke="#4C3FC5"/>
<path fill-rule="evenodd" clip-rule="evenodd" d="M83.2323 242.496C83.2323 239.949 85.5411 237.884 88.3891 237.884H232.782C235.63 237.884 237.939 239.949 237.939 242.496V324.35C237.939 326.897 235.63 328.961 232.782 328.961H88.3892C85.5411 328.961 83.2323 326.897 83.2323 324.35V242.496ZM88.3891 240.19H232.782C234.206 240.19 235.361 241.222 235.361 242.496V254.025H85.8107V242.496C85.8107 241.222 86.9651 240.19 88.3891 240.19ZM235.361 256.33V324.35C235.361 325.623 234.206 326.656 232.782 326.656H88.3892C86.9651 326.656 85.8107 325.623 85.8107 324.35V256.33H235.361Z" fill="#4C3FC5"/>
<path d="M210.865 249.413C212.289 249.413 213.444 248.381 213.444 247.107C213.444 245.834 212.289 244.802 210.865 244.802C209.441 244.802 208.287 245.834 208.287 247.107C208.287 248.381 209.441 249.413 210.865 249.413Z" fill="#4C3FC5"/>
<path d="M221.179 247.107C221.179 248.381 220.025 249.413 218.601 249.413C217.177 249.413 216.022 248.381 216.022 247.107C216.022 245.834 217.177 244.802 218.601 244.802C220.025 244.802 221.179 245.834 221.179 247.107Z" fill="#4C3FC5"/>
<path d="M228.914 247.107C228.914 248.381 227.76 249.413 226.336 249.413C224.912 249.413 223.758 248.381 223.758 247.107C223.758 245.834 224.912 244.802 226.336 244.802C227.76 244.802 228.914 245.834 228.914 247.107Z" fill="#4C3FC5"/>
<rect x="96.1245" y="264.4" width="128.922" height="11.5287" fill="#4C3FC5" fill-opacity="0.65"/>
<path fill-rule="evenodd" clip-rule="evenodd" d="M127.066 279.388H96.1245V307.057H127.066V279.388ZM98.1245 311.127C97.02 311.127 96.1245 312.022 96.1245 313.127C96.1245 314.232 97.02 315.127 98.1245 315.127H125.066C126.17 315.127 127.066 314.232 127.066 313.127C127.066 312.022 126.17 311.127 125.066 311.127H98.1245ZM136.09 296.987C136.09 295.882 136.986 294.987 138.09 294.987H174.056C175.161 294.987 176.056 295.882 176.056 296.987C176.056 298.091 175.161 298.987 174.056 298.987H138.09C136.986 298.987 136.09 298.091 136.09 296.987ZM187.081 294.987C185.976 294.987 185.081 295.882 185.081 296.987C185.081 298.091 185.976 298.987 187.081 298.987H223.047C224.151 298.987 225.047 298.091 225.047 296.987C225.047 295.882 224.151 294.987 223.047 294.987H187.081ZM136.09 305.057C136.09 303.952 136.986 303.057 138.09 303.057H174.056C175.161 303.057 176.056 303.952 176.056 305.057C176.056 306.161 175.161 307.057 174.056 307.057H138.09C136.986 307.057 136.09 306.161 136.09 305.057ZM138.09 311.127C136.986 311.127 136.09 312.022 136.09 313.127C136.09 314.232 136.986 315.127 138.09 315.127H174.056C175.161 315.127 176.056 314.232 176.056 313.127C176.056 312.022 175.161 311.127 174.056 311.127H138.09ZM185.081 313.127C185.081 312.022 185.976 311.127 187.081 311.127H223.047C224.151 311.127 225.047 312.022 225.047 313.127C225.047 314.232 224.151 315.127 223.047 315.127H187.081C185.976 315.127 185.081 314.232 185.081 313.127ZM187.081 303.057C185.976 303.057 185.081 303.952 185.081 305.057C185.081 306.161 185.976 307.057 187.081 307.057H223.047C224.151 307.057 225.047 306.161 225.047 305.057C225.047 303.952 224.151 303.057 223.047 303.057H187.081ZM136.09 279.388H176.056V288.611H136.09V279.388ZM225.047 279.388H185.081V288.611H225.047V279.388Z" fill="#4C3FC5" fill-opacity="0.2"/>
<rect x="224.074" y="183.258" width="247.594" height="141.483" rx="5" fill="white" stroke="#4C3FC5" stroke-width="2"/>
<path fill-rule="evenodd" clip-rule="evenodd" d="M307.924 254.316H271.04V285.307H307.924V254.316ZM273.04 290.347C271.936 290.347 271.04 291.242 271.04 292.347C271.04 293.451 271.936 294.347 273.04 294.347H305.924C307.029 294.347 307.924 293.451 307.924 292.347C307.924 291.242 307.029 290.347 305.924 290.347H273.04ZM318.683 274.268C318.683 273.164 319.578 272.268 320.683 272.268H364.325C365.43 272.268 366.325 273.164 366.325 274.268C366.325 275.373 365.43 276.268 364.325 276.268H320.683C319.578 276.268 318.683 275.373 318.683 274.268ZM379.083 272.268C377.978 272.268 377.083 273.164 377.083 274.268C377.083 275.373 377.978 276.268 379.083 276.268H422.725C423.83 276.268 424.725 275.373 424.725 274.268C424.725 273.164 423.83 272.268 422.725 272.268H379.083ZM318.683 283.308C318.683 282.203 319.578 281.308 320.683 281.308H364.325C365.43 281.308 366.325 282.203 366.325 283.308C366.325 284.412 365.43 285.308 364.325 285.308H320.683C319.578 285.308 318.683 284.412 318.683 283.308ZM320.683 290.347C319.578 290.347 318.683 291.242 318.683 292.347C318.683 293.451 319.578 294.347 320.683 294.347H364.325C365.43 294.347 366.325 293.451 366.325 292.347C366.325 291.242 365.43 290.347 364.325 290.347H320.683ZM377.083 292.347C377.083 291.242 377.978 290.347 379.083 290.347H422.725C423.83 290.347 424.725 291.242 424.725 292.347C424.725 293.451 423.83 294.347 422.725 294.347H379.083C377.978 294.347 377.083 293.451 377.083 292.347ZM379.083 281.308C377.978 281.308 377.083 282.203 377.083 283.308C377.083 284.412 377.978 285.308 379.083 285.308H422.725C423.83 285.308 424.725 284.412 424.725 283.308C424.725 282.203 423.83 281.308 422.725 281.308H379.083ZM318.683 254.316H366.325V264.647H318.683V254.316ZM424.725 254.316H377.083V264.647H424.725V254.316Z" fill="#4C3FC5" fill-opacity="0.2"/>
<rect x="271.04" y="232.364" width="153.685" height="12.913" fill="#4C3FC5" fill-opacity="0.65"/>
<path fill-rule="evenodd" clip-rule="evenodd" d="M244.914 202.027C244.914 198.813 248.01 196.208 251.83 196.208H445.473C449.292 196.208 452.388 198.813 452.388 202.027V305.314C452.388 308.528 449.292 311.133 445.473 311.133H251.83C248.01 311.133 244.914 308.528 244.914 305.314V202.027ZM251.83 199.117H445.473C447.382 199.117 448.931 200.42 448.931 202.027V216.574H248.372V202.027C248.372 200.42 249.92 199.117 251.83 199.117ZM448.931 219.484V305.314C448.931 306.921 447.382 308.224 445.473 308.224H251.83C249.92 308.224 248.372 306.921 248.372 305.314V219.484H448.931Z" fill="#4C3FC5"/>
<path d="M416.08 210.755C417.99 210.755 419.538 209.453 419.538 207.846C419.538 206.239 417.99 204.936 416.08 204.936C414.171 204.936 412.622 206.239 412.622 207.846C412.622 209.453 414.171 210.755 416.08 210.755Z" fill="#4C3FC5"/>
<path d="M429.912 207.846C429.912 209.453 428.364 210.755 426.454 210.755C424.544 210.755 422.996 209.453 422.996 207.846C422.996 206.239 424.544 204.936 426.454 204.936C428.364 204.936 429.912 206.239 429.912 207.846Z" fill="#4C3FC5"/>
<path d="M440.286 207.846C440.286 209.453 438.738 210.755 436.828 210.755C434.918 210.755 433.37 209.453 433.37 207.846C433.37 206.239 434.918 204.936 436.828 204.936C438.738 204.936 440.286 206.239 440.286 207.846Z" fill="#4C3FC5"/>
<path d="M360.799 324.151L370.414 351.572H325.328L334.943 324.151H360.799ZM322.507 353.572L322.151 354.587H323.562H372.181H373.591L373.235 353.572H379.33C379.937 353.572 380.444 353.748 380.774 353.982C381.106 354.217 381.19 354.451 381.19 354.601C381.19 354.752 381.106 354.985 380.774 355.22C380.444 355.454 379.937 355.63 379.33 355.63H316.412C315.805 355.63 315.298 355.454 314.968 355.22C314.636 354.985 314.552 354.752 314.552 354.601C314.552 354.451 314.636 354.217 314.968 353.982C315.298 353.748 315.805 353.572 316.412 353.572H322.507Z" fill="#4C3FC5" fill-opacity="0.2" stroke="#4C3FC5" stroke-width="2"/>
<path fill-rule="evenodd" clip-rule="evenodd" d="M33.6778 269.352H43.9187C46.1279 269.352 47.9187 271.143 47.9187 273.352V338.219L2 338.219V273.352C2 271.142 3.79086 269.352 6 269.352H16.241C16.5429 270.469 17.5635 271.29 18.776 271.29H31.1427C32.3552 271.29 33.3758 270.469 33.6778 269.352ZM49.9187 340.219L49.9187 338.219L49.9187 273.352C49.9187 270.038 47.2324 267.352 43.9187 267.352H6C2.68629 267.352 0 270.038 0 273.352V340.219V349.974C0 353.287 2.68629 355.974 6 355.974H43.9187C47.2324 355.974 49.9187 353.287 49.9187 349.974V340.219ZM2 349.974V340.219L47.9187 340.219V349.974C47.9187 352.183 46.1279 353.974 43.9187 353.974H6C3.79086 353.974 2 352.183 2 349.974ZM24.9593 349.409C26.1756 349.409 27.1616 348.527 27.1616 347.44C27.1616 346.352 26.1756 345.47 24.9593 345.47C23.7431 345.47 22.757 346.352 22.757 347.44C22.757 348.527 23.7431 349.409 24.9593 349.409Z" fill="#4C3FC5"/>
<path fill-rule="evenodd" clip-rule="evenodd" d="M38.999 293.856H10.9197V310.438H38.999V293.856ZM11.966 316.176C11.3881 316.176 10.9197 316.644 10.9197 317.222C10.9197 317.8 11.3881 318.268 11.9659 318.268H25.4731C26.0509 318.268 26.5193 317.8 26.5193 317.222C26.5193 316.644 26.0509 316.176 25.4731 316.176H11.966ZM11.9659 324.546C11.3881 324.546 10.9197 325.014 10.9197 325.592C10.9197 326.17 11.3881 326.638 11.9659 326.638H37.9528C38.5306 326.638 38.999 326.17 38.999 325.592C38.999 325.014 38.5306 324.546 37.9528 324.546H11.9659ZM10.9197 321.407C10.9197 320.829 11.3881 320.361 11.9659 320.361H34.8329C35.4107 320.361 35.8791 320.829 35.8791 321.407C35.8791 321.985 35.4107 322.453 34.8329 322.453H11.9659C11.3881 322.453 10.9197 321.985 10.9197 321.407Z" fill="#4C3FC5" fill-opacity="0.2"/>
<rect x="10.9197" y="284.091" width="28.0793" height="4.18493" fill="#4C3FC5" fill-opacity="0.65"/>
<rect x="1.55995" y="356.63" width="471.108" height="8.36984" rx="4.18492" fill="#4C3FC5" fill-opacity="0.2"/>
<path d="M106.077 118.612V126.982M96.7175 126.459H106.662M101.397 121.49L105.156 118.369C105.372 118.189 105.656 118.089 105.952 118.089H123.627C124.273 118.089 124.797 118.558 124.797 119.136V150.522C124.797 151.1 124.273 151.569 123.627 151.569H97.8875C97.2414 151.569 96.7175 151.1 96.7175 150.522V126.108C96.7175 125.83 96.8408 125.564 97.0602 125.368L101.397 121.49Z" stroke="#4C3FC5" stroke-width="2"/>
<path d="M107.383 135.561C107.52 135.628 107.589 135.737 107.589 135.888C107.589 136.016 107.536 136.133 107.43 136.239C107.33 136.345 107.227 136.398 107.121 136.398C107.059 136.398 106.987 136.382 106.906 136.348C106.825 136.309 106.74 136.267 106.653 136.223L103.611 134.624C103.536 134.585 103.48 134.532 103.443 134.465C103.405 134.392 103.386 134.317 103.386 134.239C103.386 134.155 103.405 134.08 103.443 134.013C103.48 133.946 103.536 133.893 103.611 133.854L106.653 132.289C106.834 132.194 106.977 132.146 107.083 132.146C107.208 132.146 107.324 132.202 107.43 132.314C107.542 132.42 107.598 132.531 107.598 132.649C107.598 132.777 107.53 132.877 107.392 132.95L104.903 134.239L107.383 135.561Z" fill="#4C3FC5"/>
<path d="M108.856 137.52C108.738 137.52 108.625 137.478 108.519 137.394C108.413 137.316 108.36 137.219 108.36 137.101C108.36 137.034 108.379 136.968 108.416 136.901L112.216 129.945C112.26 129.867 112.316 129.806 112.385 129.761C112.46 129.716 112.541 129.694 112.628 129.694C112.747 129.694 112.856 129.736 112.956 129.82C113.062 129.898 113.115 129.995 113.115 130.113C113.115 130.18 113.096 130.247 113.059 130.313L109.268 137.269C109.224 137.347 109.165 137.408 109.09 137.453C109.021 137.498 108.943 137.52 108.856 137.52Z" fill="#4C3FC5"/>
<path d="M117.845 133.921C117.92 133.96 117.976 134.016 118.013 134.088C118.051 134.155 118.07 134.228 118.07 134.306C118.07 134.39 118.051 134.465 118.013 134.532C117.976 134.599 117.92 134.652 117.845 134.691L114.803 136.256C114.622 136.351 114.478 136.398 114.372 136.398C114.248 136.398 114.129 136.345 114.017 136.239C113.911 136.128 113.858 136.013 113.858 135.896C113.858 135.768 113.926 135.667 114.064 135.595L116.553 134.306L114.073 132.983C113.936 132.917 113.867 132.808 113.867 132.657C113.867 132.529 113.917 132.412 114.017 132.306C114.123 132.199 114.229 132.146 114.335 132.146C114.397 132.146 114.469 132.166 114.55 132.205C114.631 132.239 114.716 132.278 114.803 132.322L117.845 133.921Z" fill="#4C3FC5"/>
<path d="M105.581 139.778C106.045 139.778 106.365 139.905 106.543 140.161C106.721 140.412 106.81 140.761 106.81 141.209V142.816C106.81 142.925 106.77 143.017 106.69 143.092C106.611 143.163 106.51 143.199 106.389 143.199C106.267 143.199 106.166 143.163 106.087 143.092C106.007 143.017 105.967 142.925 105.967 142.816V141.209C105.967 140.979 105.916 140.799 105.813 140.669C105.715 140.535 105.539 140.468 105.286 140.468C105.024 140.468 104.818 140.539 104.669 140.682C104.524 140.82 104.451 140.996 104.451 141.209V142.816C104.451 142.925 104.411 143.017 104.332 143.092C104.252 143.163 104.152 143.199 104.03 143.199C103.908 143.199 103.808 143.163 103.728 143.092C103.648 143.017 103.609 142.925 103.609 142.816V138.937C103.609 138.828 103.648 138.738 103.728 138.667C103.808 138.591 103.908 138.554 104.03 138.554C104.152 138.554 104.252 138.591 104.332 138.667C104.411 138.738 104.451 138.828 104.451 138.937V140.324C104.577 140.173 104.737 140.046 104.928 139.941C105.125 139.832 105.343 139.778 105.581 139.778Z" fill="#4C3FC5"/>
<path d="M109.533 142.49C109.598 142.49 109.657 142.519 109.708 142.577C109.765 142.632 109.793 142.705 109.793 142.797C109.793 142.91 109.723 143.006 109.582 143.086C109.446 143.161 109.292 143.199 109.119 143.199C108.829 143.199 108.583 143.145 108.382 143.036C108.185 142.923 108.087 142.686 108.087 142.326V140.594H107.764C107.652 140.594 107.558 140.56 107.483 140.493C107.408 140.426 107.371 140.343 107.371 140.242C107.371 140.146 107.408 140.067 107.483 140.004C107.558 139.937 107.652 139.903 107.764 139.903H108.087V139.502C108.087 139.393 108.127 139.303 108.206 139.232C108.29 139.156 108.393 139.119 108.515 139.119C108.632 139.119 108.73 139.156 108.81 139.232C108.889 139.303 108.929 139.393 108.929 139.502V139.903H109.428C109.54 139.903 109.634 139.937 109.708 140.004C109.783 140.071 109.821 140.154 109.821 140.255C109.821 140.351 109.783 140.433 109.708 140.5C109.634 140.562 109.54 140.594 109.428 140.594H108.929V142.295C108.929 142.383 108.955 142.448 109.006 142.49C109.058 142.527 109.128 142.546 109.217 142.546C109.255 142.546 109.306 142.538 109.372 142.521C109.428 142.5 109.481 142.49 109.533 142.49Z" fill="#4C3FC5"/>
<path d="M114.925 139.778C115.389 139.778 115.709 139.905 115.887 140.161C116.065 140.412 116.154 140.761 116.154 141.209V142.816C116.154 142.925 116.114 143.017 116.035 143.092C115.955 143.163 115.854 143.199 115.733 143.199C115.611 143.199 115.51 143.163 115.431 143.092C115.351 143.017 115.312 142.925 115.312 142.816V141.209C115.312 140.979 115.26 140.799 115.157 140.669C115.059 140.535 114.883 140.468 114.631 140.468C114.369 140.468 114.163 140.539 114.013 140.682C113.868 140.82 113.795 140.996 113.795 141.209V142.816C113.795 142.925 113.755 143.017 113.676 143.092C113.596 143.163 113.496 143.199 113.374 143.199C113.252 143.199 113.152 143.163 113.072 143.092C112.993 143.017 112.953 142.925 112.953 142.816V141.209C112.953 140.979 112.901 140.799 112.798 140.669C112.7 140.535 112.525 140.468 112.272 140.468C112.01 140.468 111.804 140.539 111.654 140.682C111.509 140.82 111.437 140.996 111.437 141.209V142.816C111.437 142.925 111.397 143.017 111.317 143.092C111.238 143.163 111.137 143.199 111.015 143.199C110.894 143.199 110.793 143.163 110.714 143.092C110.634 143.017 110.594 142.925 110.594 142.816V140.223C110.594 140.115 110.634 140.025 110.714 139.954C110.793 139.878 110.894 139.841 111.015 139.841C111.137 139.841 111.238 139.878 111.317 139.954C111.397 140.025 111.437 140.115 111.437 140.223V140.324C111.563 140.173 111.722 140.046 111.914 139.941C112.111 139.832 112.328 139.778 112.567 139.778C113.156 139.778 113.533 140.008 113.697 140.468C113.805 140.293 113.966 140.133 114.181 139.991C114.401 139.849 114.649 139.778 114.925 139.778Z" fill="#4C3FC5"/>
<path d="M117.978 142.816C117.978 142.925 117.936 143.017 117.852 143.092C117.772 143.163 117.672 143.199 117.55 143.199C117.433 143.199 117.335 143.163 117.255 143.092C117.176 143.017 117.136 142.925 117.136 142.816V138.937C117.136 138.828 117.176 138.738 117.255 138.667C117.339 138.591 117.442 138.554 117.564 138.554C117.681 138.554 117.779 138.591 117.859 138.667C117.938 138.738 117.978 138.828 117.978 138.937V142.816Z" fill="#4C3FC5"/>
<path d="M152.876 118.612V126.982M143.516 126.459H153.461M148.196 121.49L151.954 118.369C152.171 118.189 152.455 118.089 152.751 118.089H170.426C171.072 118.089 171.596 118.558 171.596 119.136V150.522C171.596 151.1 171.072 151.569 170.426 151.569H144.686C144.04 151.569 143.516 151.1 143.516 150.522V126.108C143.516 125.83 143.64 125.564 143.859 125.368L148.196 121.49Z" stroke="#4C3FC5" stroke-width="2"/>
<path d="M156.756 137.378C156.856 137.411 156.934 137.459 156.99 137.52C157.046 137.587 157.074 137.657 157.074 137.729C157.074 137.824 157.037 137.908 156.962 137.98C156.887 138.053 156.796 138.089 156.69 138.089C156.628 138.089 156.581 138.086 156.55 138.081C155.907 137.964 155.461 137.774 155.211 137.512C154.962 137.255 154.837 136.912 154.837 136.482L154.856 135.628C154.856 135.327 154.781 135.101 154.631 134.95C154.481 134.8 154.279 134.719 154.023 134.708H153.985C153.867 134.708 153.764 134.671 153.676 134.599C153.595 134.526 153.555 134.434 153.555 134.323C153.555 134.211 153.595 134.119 153.676 134.046C153.764 133.974 153.867 133.938 153.985 133.938H154.041C154.291 133.926 154.488 133.846 154.631 133.695C154.781 133.544 154.856 133.318 154.856 133.017L154.837 132.163C154.837 131.734 154.962 131.39 155.211 131.134C155.461 130.871 155.907 130.682 156.55 130.565C156.575 130.559 156.612 130.556 156.662 130.556C156.793 130.556 156.893 130.592 156.962 130.665C157.037 130.738 157.074 130.827 157.074 130.933C157.074 131.005 157.043 131.072 156.98 131.134C156.924 131.195 156.849 131.24 156.756 131.268C156.506 131.346 156.319 131.432 156.194 131.527C156.069 131.616 155.985 131.722 155.941 131.845C155.904 131.962 155.885 132.116 155.885 132.305L155.904 133.176C155.904 133.483 155.82 133.728 155.651 133.912C155.489 134.091 155.255 134.228 154.949 134.323C155.255 134.417 155.489 134.557 155.651 134.741C155.82 134.925 155.904 135.168 155.904 135.469L155.885 136.34C155.885 136.529 155.907 136.683 155.951 136.8C155.994 136.917 156.076 137.02 156.194 137.11C156.319 137.205 156.506 137.294 156.756 137.378Z" fill="#4C3FC5"/>
<path d="M160.447 133.921C160.565 133.921 160.665 133.957 160.746 134.03C160.834 134.102 160.877 134.194 160.877 134.306C160.877 134.417 160.834 134.51 160.746 134.582C160.665 134.655 160.565 134.691 160.447 134.691H160.391C160.141 134.702 159.941 134.783 159.792 134.934C159.648 135.084 159.576 135.31 159.576 135.612L159.595 136.465C159.595 136.895 159.47 137.238 159.221 137.495C158.971 137.757 158.525 137.947 157.882 138.064C157.82 138.075 157.767 138.081 157.723 138.081C157.617 138.081 157.53 138.039 157.461 137.955C157.393 137.871 157.358 137.785 157.358 137.696C157.358 137.623 157.386 137.556 157.442 137.495C157.505 137.433 157.583 137.389 157.676 137.361C157.926 137.283 158.113 137.196 158.238 137.101C158.363 137.012 158.444 136.906 158.481 136.783C158.525 136.666 158.547 136.513 158.547 136.323L158.528 135.453C158.528 135.146 158.609 134.903 158.772 134.724C158.94 134.54 159.177 134.401 159.483 134.306C159.177 134.211 158.94 134.072 158.772 133.887C158.609 133.703 158.528 133.461 158.528 133.159L158.547 132.289C158.547 132.099 158.525 131.946 158.481 131.828C158.438 131.711 158.353 131.608 158.229 131.519C158.11 131.424 157.926 131.335 157.676 131.251C157.577 131.217 157.499 131.17 157.442 131.109C157.386 131.042 157.358 130.972 157.358 130.899C157.358 130.804 157.396 130.721 157.471 130.648C157.545 130.576 157.636 130.539 157.742 130.539C157.804 130.539 157.851 130.542 157.882 130.548C158.525 130.665 158.971 130.855 159.221 131.117C159.47 131.374 159.595 131.717 159.595 132.146L159.576 133C159.576 133.301 159.651 133.527 159.801 133.678C159.951 133.829 160.154 133.91 160.409 133.921H160.447Z" fill="#4C3FC5"/>
<path d="M154.383 139.778C154.781 139.778 155.101 139.834 155.345 139.947C155.588 140.056 155.71 140.202 155.71 140.387C155.71 140.479 155.679 140.56 155.619 140.631C155.558 140.698 155.478 140.732 155.38 140.732C155.305 140.732 155.244 140.724 155.197 140.707C155.151 140.686 155.104 140.661 155.057 140.631C155.015 140.598 154.973 140.571 154.931 140.55C154.884 140.529 154.814 140.51 154.72 140.493C154.631 140.477 154.559 140.468 154.502 140.468C154.151 140.468 153.875 140.567 153.674 140.763C153.478 140.956 153.379 141.209 153.379 141.523C153.379 141.824 153.48 142.075 153.681 142.276C153.882 142.473 154.14 142.571 154.453 142.571C154.683 142.571 154.853 142.546 154.966 142.496C154.994 142.483 155.031 142.462 155.078 142.433C155.13 142.4 155.176 142.374 155.218 142.358C155.261 142.341 155.312 142.333 155.373 142.333C155.49 142.333 155.581 142.366 155.647 142.433C155.717 142.5 155.752 142.586 155.752 142.69C155.752 142.791 155.686 142.885 155.555 142.973C155.424 143.061 155.251 143.132 155.036 143.186C154.821 143.237 154.591 143.262 154.348 143.262C153.988 143.262 153.669 143.186 153.393 143.036C153.122 142.885 152.911 142.678 152.761 142.414C152.612 142.146 152.537 141.849 152.537 141.523C152.537 141.184 152.614 140.883 152.769 140.619C152.928 140.355 153.148 140.15 153.428 140.004C153.709 139.853 154.027 139.778 154.383 139.778Z" fill="#4C3FC5"/>
<path d="M156.143 142.678C156.1 142.628 156.079 142.565 156.079 142.49C156.079 142.381 156.14 142.289 156.262 142.213C156.327 142.176 156.395 142.157 156.465 142.157C156.564 142.157 156.657 142.197 156.746 142.276C156.887 142.406 157.032 142.502 157.182 142.565C157.336 142.628 157.521 142.659 157.736 142.659C158.101 142.646 158.284 142.523 158.284 142.289C158.284 142.167 158.22 142.075 158.094 142.012C157.972 141.95 157.781 141.887 157.518 141.824C157.247 141.757 157.025 141.69 156.852 141.623C156.683 141.556 156.536 141.456 156.409 141.322C156.288 141.184 156.227 141 156.227 140.77C156.227 140.569 156.29 140.395 156.416 140.249C156.547 140.098 156.716 139.983 156.922 139.903C157.132 139.82 157.355 139.778 157.589 139.778C157.827 139.778 158.066 139.817 158.305 139.897C158.543 139.976 158.731 140.094 158.866 140.249C158.927 140.315 158.958 140.391 158.958 140.475C158.958 140.571 158.913 140.65 158.824 140.713C158.759 140.759 158.684 140.782 158.6 140.782C158.497 140.782 158.412 140.753 158.347 140.694C158.263 140.602 158.153 140.529 158.017 140.475C157.886 140.42 157.736 140.393 157.568 140.393C157.212 140.393 157.034 140.508 157.034 140.738C157.034 140.83 157.067 140.906 157.132 140.964C157.198 141.019 157.28 141.062 157.378 141.096C157.481 141.125 157.624 141.163 157.806 141.209C158.059 141.272 158.27 141.337 158.438 141.404C158.607 141.471 158.749 141.573 158.866 141.711C158.983 141.849 159.042 142.031 159.042 142.257C159.042 142.462 158.974 142.642 158.838 142.797C158.702 142.948 158.527 143.063 158.312 143.142C158.101 143.222 157.883 143.262 157.659 143.262C157.35 143.262 157.062 143.216 156.795 143.124C156.529 143.032 156.311 142.883 156.143 142.678Z" fill="#4C3FC5"/>
<path d="M159.529 142.678C159.487 142.628 159.466 142.565 159.466 142.49C159.466 142.381 159.527 142.289 159.648 142.213C159.714 142.176 159.782 142.157 159.852 142.157C159.95 142.157 160.044 142.197 160.133 142.276C160.273 142.406 160.418 142.502 160.568 142.565C160.722 142.628 160.907 142.659 161.123 142.659C161.488 142.646 161.67 142.523 161.67 142.289C161.67 142.167 161.607 142.075 161.481 142.012C161.359 141.95 161.167 141.887 160.905 141.824C160.634 141.757 160.411 141.69 160.238 141.623C160.07 141.556 159.922 141.456 159.796 141.322C159.674 141.184 159.613 141 159.613 140.77C159.613 140.569 159.676 140.395 159.803 140.249C159.934 140.098 160.102 139.983 160.308 139.903C160.519 139.82 160.741 139.778 160.975 139.778C161.214 139.778 161.453 139.817 161.691 139.897C161.93 139.976 162.117 140.094 162.253 140.249C162.314 140.315 162.344 140.391 162.344 140.475C162.344 140.571 162.3 140.65 162.211 140.713C162.145 140.759 162.07 140.782 161.986 140.782C161.883 140.782 161.799 140.753 161.733 140.694C161.649 140.602 161.539 140.529 161.403 140.475C161.272 140.42 161.123 140.393 160.954 140.393C160.598 140.393 160.421 140.508 160.421 140.738C160.421 140.83 160.453 140.906 160.519 140.964C160.584 141.019 160.666 141.062 160.765 141.096C160.868 141.125 161.01 141.163 161.193 141.209C161.445 141.272 161.656 141.337 161.825 141.404C161.993 141.471 162.136 141.573 162.253 141.711C162.37 141.849 162.428 142.031 162.428 142.257C162.428 142.462 162.36 142.642 162.225 142.797C162.089 142.948 161.913 143.063 161.698 143.142C161.488 143.222 161.27 143.262 161.045 143.262C160.736 143.262 160.449 143.216 160.182 143.124C159.915 143.032 159.698 142.883 159.529 142.678Z" fill="#4C3FC5"/>
<path d="M59.2785 118.612V126.982M49.9187 126.459H59.8635M54.5986 121.49L58.3568 118.369C58.5732 118.189 58.8576 118.089 59.1529 118.089H76.828C77.4742 118.089 77.998 118.558 77.998 119.136V150.522C77.998 151.1 77.4742 151.569 76.828 151.569H51.0887C50.4425 151.569 49.9187 151.1 49.9187 150.522V126.108C49.9187 125.83 50.042 125.564 50.2614 125.368L54.5986 121.49Z" stroke="#4C3FC5" stroke-width="2"/>
<path d="M61.2862 144.429C61.1739 144.429 61.0803 144.396 61.0054 144.329C60.9306 144.262 60.8931 144.178 60.8931 144.078V144.009C60.8931 143.841 61.0124 143.726 61.2511 143.664C61.4009 143.622 61.4945 143.551 61.5319 143.45C61.574 143.354 61.5951 143.218 61.5951 143.042V140.224C61.5951 140.115 61.6349 140.025 61.7144 139.954C61.794 139.878 61.8946 139.841 62.0163 139.841C62.138 139.841 62.2386 139.878 62.3181 139.954C62.3977 140.025 62.4375 140.115 62.4375 140.224V143.262C62.4375 143.496 62.386 143.701 62.283 143.877C62.1848 144.053 62.0467 144.189 61.8689 144.285C61.6957 144.381 61.5015 144.429 61.2862 144.429ZM62.0022 139.433C61.8431 139.433 61.7308 139.41 61.6653 139.364C61.5998 139.318 61.567 139.236 61.567 139.119V139C61.567 138.882 61.6021 138.801 61.6723 138.755C61.7425 138.709 61.8548 138.686 62.0093 138.686C62.1731 138.686 62.2877 138.709 62.3532 138.755C62.4188 138.801 62.4515 138.882 62.4515 139V139.119C62.4515 139.24 62.4164 139.324 62.3462 139.37C62.2807 139.412 62.166 139.433 62.0022 139.433Z" fill="#494454"/>
<path d="M63.2054 142.678C63.1633 142.628 63.1422 142.565 63.1422 142.49C63.1422 142.381 63.203 142.289 63.3247 142.214C63.3902 142.176 63.4581 142.157 63.5283 142.157C63.6266 142.157 63.7202 142.197 63.8091 142.276C63.9495 142.406 64.0946 142.502 64.2443 142.565C64.3987 142.628 64.5836 142.659 64.7989 142.659C65.1639 142.647 65.3464 142.523 65.3464 142.289C65.3464 142.167 65.2832 142.075 65.1569 142.013C65.0352 141.95 64.8433 141.887 64.5813 141.824C64.3098 141.757 64.0875 141.69 63.9144 141.623C63.7459 141.556 63.5985 141.456 63.4721 141.322C63.3505 141.184 63.2896 141 63.2896 140.77C63.2896 140.569 63.3528 140.395 63.4792 140.249C63.6102 140.098 63.7787 139.983 63.9846 139.903C64.1952 139.82 64.4175 139.778 64.6515 139.778C64.8901 139.778 65.1288 139.818 65.3675 139.897C65.6062 139.977 65.7934 140.094 65.9291 140.249C65.9899 140.316 66.0203 140.391 66.0203 140.475C66.0203 140.571 65.9759 140.65 65.887 140.713C65.8214 140.759 65.7466 140.782 65.6623 140.782C65.5594 140.782 65.4751 140.753 65.4096 140.694C65.3254 140.602 65.2154 140.529 65.0797 140.475C64.9486 140.42 64.7989 140.393 64.6304 140.393C64.2747 140.393 64.0969 140.508 64.0969 140.738C64.0969 140.83 64.1297 140.906 64.1952 140.964C64.2607 141.019 64.3426 141.063 64.4409 141.096C64.5438 141.125 64.6866 141.163 64.8691 141.209C65.1218 141.272 65.3324 141.337 65.5009 141.404C65.6693 141.471 65.8121 141.573 65.9291 141.711C66.0461 141.849 66.1046 142.031 66.1046 142.257C66.1046 142.463 66.0367 142.642 65.901 142.797C65.7653 142.948 65.5898 143.063 65.3745 143.143C65.1639 143.222 64.9463 143.262 64.7217 143.262C64.4128 143.262 64.125 143.216 63.8582 143.124C63.5915 143.032 63.3739 142.883 63.2054 142.678Z" fill="#494454"/>
<g clip-path="url(#clip0)">
<path d="M61.3616 132.331L60.7076 131.359L61.2476 130.876L62.335 131.461C62.5328 131.359 62.7533 131.277 62.9815 131.223L63.2856 130.121H64.0461L64.3503 131.223C64.5785 131.277 64.799 131.359 64.9967 131.461L66.0842 130.876L66.6242 131.359L65.9701 132.331C66.0842 132.508 66.1755 132.705 66.2363 132.909L67.4683 133.181V133.861L66.2363 134.133C66.1755 134.337 66.0842 134.535 65.9701 134.711L66.6242 135.684L66.0842 136.167L64.9967 135.582C64.799 135.684 64.5785 135.765 64.3503 135.82L64.0461 136.921H63.2856L62.9815 135.82C62.7533 135.765 62.5328 135.684 62.335 135.582L61.2476 136.167L60.7076 135.684L61.3616 134.711C61.2476 134.535 61.1563 134.337 61.0955 134.133L59.8635 133.861V133.181L61.0955 132.909C61.1563 132.705 61.2476 132.508 61.3616 132.331ZM63.6659 134.541C63.9684 134.541 64.2586 134.434 64.4725 134.243C64.6864 134.051 64.8066 133.792 64.8066 133.521C64.8066 133.251 64.6864 132.991 64.4725 132.8C64.2586 132.609 63.9684 132.501 63.6659 132.501C63.3633 132.501 63.0732 132.609 62.8593 132.8C62.6453 132.991 62.5252 133.251 62.5252 133.521C62.5252 133.792 62.6453 134.051 62.8593 134.243C63.0732 134.434 63.3633 134.541 63.6659 134.541Z" fill="#4C3FC5"/>
</g>
<line x1="24.4593" y1="264.562" x2="24.4593" y2="201.788" stroke="#00118E" stroke-opacity="0.25" stroke-dasharray="2 2"/>
<line x1="24.9593" y1="201.288" x2="110.757" y2="201.288" stroke="#00118E" stroke-opacity="0.25" stroke-dasharray="2 2"/>
<line x1="110.757" y1="201.288" x2="223.074" y2="201.288" stroke="#00118E" stroke-opacity="0.25" stroke-dasharray="2 2"/>
<line x1="110.724" y1="38.0757" x2="184.275" y2="38.0757" stroke="#00118E" stroke-opacity="0.25" stroke-dasharray="2 2"/>
<line x1="291.713" y1="88.2948" x2="365.264" y2="88.2948" stroke="#00118E" stroke-opacity="0.25" stroke-dasharray="2 2"/>
<line x1="60.8384" y1="85.5049" x2="160.676" y2="85.5049" stroke="#00118E" stroke-opacity="0.25" stroke-dasharray="2 2"/>
<line x1="60.8384" y1="181.758" x2="160.676" y2="181.758" stroke="#00118E" stroke-opacity="0.25" stroke-dasharray="2 2"/>
<line x1="110.257" y1="104.14" x2="110.257" y2="38.5757" stroke="#00118E" stroke-opacity="0.25" stroke-dasharray="2 2"/>
<line x1="110.257" y1="215.738" x2="110.257" y2="162.728" stroke="#00118E" stroke-opacity="0.25" stroke-dasharray="2 2"/>
<line x1="291.213" y1="88.7948" x2="291.213" y2="58.1054" stroke="#00118E" stroke-opacity="0.25" stroke-dasharray="2 2"/>
<line x1="160.176" y1="104.14" x2="160.176" y2="86.0049" stroke="#00118E" stroke-opacity="0.25" stroke-dasharray="2 2"/>
<line x1="160.176" y1="180.863" x2="160.176" y2="162.729" stroke="#00118E" stroke-opacity="0.25" stroke-dasharray="2 2"/>
<line x1="60.3384" y1="104.14" x2="60.3384" y2="84.6099" stroke="#00118E" stroke-opacity="0.25" stroke-dasharray="2 2"/>
<line x1="60.3384" y1="182.258" x2="60.3384" y2="162.729" stroke="#00118E" stroke-opacity="0.25" stroke-dasharray="2 2"/>
<path d="M300.411 47.7077H300.402L300.393 47.7079L262.816 48.5839H225.238H191.268C189.151 45.28 187.945 41.4598 187.945 37.3909C187.945 24.9786 199.226 14.7777 213.322 14.7777C217.506 14.7777 221.45 15.68 224.925 17.2753L225.415 17.5005L225.785 17.1069C234.635 7.67513 247.935 1.66144 262.824 1.66144C277.714 1.66144 291.013 7.67513 299.864 17.1069L300.233 17.5005L300.724 17.2753C304.199 15.68 308.143 14.7777 312.327 14.7777C326.423 14.7777 337.704 24.9786 337.704 37.3909C337.704 41.1054 336.699 44.6119 334.914 47.7077H300.411Z" stroke="#4C3FC5" stroke-width="1.5"/>
<path d="M343.193 57.5321H308.178L270.502 58.2735H232.826H198.368C196.034 55.3163 194.693 51.8603 194.693 48.1679C194.693 37.2498 206.418 28.399 220.881 28.399C225.184 28.399 229.245 29.1822 232.826 30.5702C241.844 22.4579 255.375 17.3006 270.502 17.3006C285.629 17.3006 299.16 22.4579 308.178 30.5702C311.759 29.1822 315.82 28.399 320.123 28.399C334.586 28.399 346.311 37.2498 346.311 48.1679C346.311 51.5559 345.182 54.7449 343.193 57.5321Z" fill="#4C3FC5" fill-opacity="0.1"/>
<defs>
<clipPath id="clip0">
<rect width="7.6048" height="6.80051" fill="white" transform="translate(59.8635 130.121)"/>
</clipPath>
</defs>
</svg>
